<?xml version="1.0" encoding="utf-8"?>
<!-- Generator: Adobe Illustrator 24.0.1, SVG Export Plug-In . SVG Version: 6.00 Build 0)  -->
<svg version="1.1" id="Layer_1" xmlns="http://www.w3.org/2000/svg" xmlns:xlink="http://www.w3.org/1999/xlink" x="0px" y="0px"
	 viewBox="0 0 38.78 51.9" style="enable-background:new 0 0 38.78 51.9;" xml:space="preserve">
<style type="text/css">
	.st0{fill:#FFFFFF;}
</style>
<path class="st0" d="M1.65,7.52c0.51-0.06,1.06-0.06,1.56-0.18c0.3-0.06,0.43,0.06,0.47,0.24c0.02,0.2-0.04,0.47-0.37,0.49
	C2.85,8.09,2.4,8.11,1.96,8.13c-0.26,0-0.37,0.1-0.37,0.37c-0.02,1.3-0.06,2.58-0.08,3.88c-0.04,2.03-0.06,4.06-0.1,6.1
	c0,0.59,0,1.2,0,1.81c0,0.24,0.04,0.37,0.39,0.37c0.47-0.02,0.98,0.1,1.44,0.22c0.14,0.04,0.22,0.28,0.33,0.43
	c-0.14,0.08-0.26,0.24-0.41,0.24c-0.39,0-0.75-0.06-1.14-0.1c-0.12-0.02-0.22-0.04-0.35-0.06c-1-0.1-0.98-0.1-0.93-1.14
	c0.04-0.91,0.04-1.83,0.08-2.74c0.02-0.91,0.08-1.85,0.08-2.76c0.02-1.38-0.02-2.74,0.02-4.13c0.02-1.34,0.12-2.68,0.14-4.02
	C1.08,5.14,1.04,3.7,1.04,2.25c0-0.22-0.1-0.51,0-0.63c0.14-0.18,0.43-0.35,0.67-0.37c0.73-0.04,1.46-0.02,2.17-0.04
	c0.26,0,0.49,0.04,0.51,0.35c0,0.3-0.18,0.45-0.49,0.45c-0.73,0-1.44,0-2.26,0C1.65,3.84,1.65,5.63,1.65,7.52z"/>
<path class="st0" d="M6.24,5.02c0.02,0.81,0.02,1.61,0.04,2.4c0,0.41,0.04,0.81,0.04,1.24c0,1.52,0,3.07,0.02,4.61
	c0.02,1.1,0.12,2.22,0.16,3.33c0.04,1.32,0.06,2.66,0.12,3.98c0.02,0.35-0.16,0.49-0.43,0.49c-0.12,0-0.37-0.2-0.35-0.28
	c0.24-1.26,0-2.52-0.02-3.76c0-0.83-0.06-4.37-0.08-4.96c-0.04-1.3-0.02-2.6-0.02-3.92c0-0.65,0.04-1.32,0.02-1.97
	c0-0.49-0.1-0.98-0.12-1.48C5.59,3.92,5.59,3.15,5.57,2.38c-0.02-0.12,0-0.24-0.04-0.35C5.45,1.75,5.45,1.5,5.78,1.42
	c0.28-0.06,0.57-0.06,0.71,0.33c0.26,0.73,0.63,1.46,0.83,2.22c0.39,1.38,0.69,2.78,1.02,4.19c0.47,1.95,0.95,3.9,1.4,5.85
	c0.26,1.22,0.45,2.46,0.67,3.68c0.02,0.16,0.1,0.33,0.26,0.47c0-0.91,0-1.83,0.02-2.74c0-0.47,0.08-0.96,0.08-1.44
	c0-0.55-0.08-1.1-0.08-1.65c-0.02-1.2-0.02-2.38-0.02-3.58c-0.02-1.56,0-3.13,0.02-4.67c0-0.81,0.02-1.61,0.08-2.42
	C10.8,1.5,11,1.36,11.1,1.22c0.1,0.14,0.26,0.28,0.26,0.41c0,1.52-0.08,3.05-0.08,4.57c-0.02,1.56-0.02,3.13,0,4.69
	c0,1.02,0.08,2.05,0.1,3.09c0,1,0,1.97,0,2.97c0,1.32,0,2.64,0,3.96c0,0.35-0.1,0.59-0.47,0.63c-0.33,0.02-0.65-0.32-0.69-0.67
	c-0.12-1.12-0.22-2.24-0.41-3.33c-0.22-1.3-0.49-2.58-0.77-3.86c-0.08-0.43-0.26-0.85-0.37-1.3c-0.12-0.51-0.2-1.06-0.33-1.59
	C8.07,9.47,7.83,8.15,7.5,6.83C7.28,5.85,6.98,4.9,6.71,3.96C6.63,3.7,6.49,3.45,6.39,3.21c-0.04,0-0.1,0-0.14,0
	C6.24,3.82,6.24,4.43,6.24,5.02z"/>
<path class="st0" d="M17.46,9.65c-0.06,1.18-0.18,2.36-0.33,3.54s-0.3,2.36-0.55,3.52c-0.12,0.59-0.49,1.14-0.61,1.73
	c-0.12,0.57-0.37,1.02-0.73,1.42c-0.49,0.53-0.98,1.04-1.48,1.52c-0.3,0.3-0.49,0.16-0.77-0.16c-0.35-0.39-0.2-0.73-0.18-1.14
	c0.06-1.3,0.12-2.6,0.14-3.9c0.04-1.58,0.06-3.19,0.06-4.8c0.02-2.03,0-4.08,0.02-6.14c0.02-0.73,0.1-1.46,0.12-2.19
	c0.02-0.39-0.04-0.77-0.06-1.14c-0.02-0.65,0.24-0.81,0.83-0.61c1.32,0.49,2.38,1.34,2.85,2.66c0.37,1.08,0.75,2.26,0.61,3.5
	C17.4,8.17,17.5,8.9,17.46,9.65z M13.54,20.56c0.1,0,0.12-0.1,0.16-0.14c1.2-0.79,1.81-2.01,2.19-3.31c0.33-1.1,0.45-2.28,0.65-3.43
	c0.1-0.61,0.16-1.24,0.18-1.85c0.04-1.24,0-2.5,0.06-3.76c0.08-1.28-0.14-2.5-0.53-3.72c-0.39-1.24-1.28-1.93-2.48-2.3
	C13.7,8.23,13.62,14.38,13.54,20.56z"/>
<path class="st0" d="M21.38,21.13c-0.08,0.51-1.95,0.45-2.52,0.3c-0.26-0.06-0.33-0.22-0.33-0.47c0.02-0.49,0.04-1,0.04-1.48
	c0.04-2.36,0.08-4.71,0.14-7.05c0.02-1.32,0.1-2.64,0.1-3.96c0-1.46-0.06-2.93-0.1-4.39c-0.02-0.77-0.06-1.54-0.04-2.32
	c0-0.18,0.02-0.49,0.33-0.55c0.3-0.04,0.3,0.35,0.3,0.53c0.04,1.89,0.06,3.78,0.08,5.67c0,1.48,0.04,2.97,0,4.45
	c-0.02,1.42-0.14,2.82-0.14,4.25c0,1.36,0.08,2.72,0.1,4.1c0.02,0.14,0.08,0.28,0.04,0.51C20.1,20.75,21.52,20.36,21.38,21.13z"/>
<path class="st0" d="M23.6,7.52c0.51-0.06,1.06-0.06,1.56-0.18c0.3-0.06,0.43,0.06,0.47,0.24c0.02,0.2-0.04,0.47-0.37,0.49
	c-0.47,0.02-0.91,0.04-1.36,0.06c-0.26,0-0.37,0.1-0.37,0.37c-0.02,1.3-0.06,2.58-0.08,3.88c-0.04,2.03-0.06,4.06-0.1,6.1
	c0,0.59,0,1.2,0,1.81c0,0.24,0.04,0.37,0.39,0.37c0.47-0.02,0.98,0.1,1.44,0.22c0.14,0.04,0.22,0.28,0.33,0.43
	c-0.14,0.08-0.26,0.24-0.41,0.24c-0.39,0-0.75-0.06-1.14-0.1c-0.12-0.02-0.22-0.04-0.35-0.06c-1-0.1-0.98-0.1-0.93-1.14
	c0.04-0.91,0.04-1.83,0.08-2.74c0.02-0.91,0.08-1.85,0.08-2.76c0.02-1.38-0.02-2.74,0.02-4.13c0.02-1.34,0.12-2.68,0.14-4.02
	c0.02-1.44-0.02-2.89-0.02-4.33c0-0.22-0.1-0.51,0-0.63c0.14-0.18,0.43-0.35,0.67-0.37c0.73-0.04,1.46-0.02,2.17-0.04
	c0.26,0,0.49,0.04,0.51,0.35c0,0.3-0.18,0.45-0.49,0.45c-0.73,0-1.44,0-2.26,0C23.6,3.84,23.6,5.63,23.6,7.52z"/>
<path class="st0" d="M28.98,7.62c0.77,1.14,1.71,2.15,2.3,3.43c0.79,1.67,1.04,3.39,0.93,5.22c-0.04,0.61,0.02,1.26-0.04,1.87
	c-0.1,0.87-0.24,1.77-0.79,2.48c-0.47,0.59-1.06,1.08-1.91,0.85c-0.24-0.06-0.47-0.28-0.69-0.45c-0.67-0.49-0.91-1.22-1.1-1.97
	c-0.1-0.41-0.14-0.81-0.22-1.22c-0.06-0.24,0-0.41,0.26-0.45c0.24-0.04,0.33,0.1,0.37,0.33c0.06,0.51,0.12,1.02,0.24,1.5
	c0.16,0.71,0.61,1.22,1.22,1.56c0.43,0.24,0.85,0.04,1.22-0.43c0.61-0.79,0.79-1.73,0.85-2.68c0.12-1.58,0.06-3.15-0.24-4.69
	c-0.12-0.67-0.49-1.3-0.75-1.95c-0.37-0.91-1.04-1.61-1.63-2.36c-0.63-0.83-1.2-1.71-1.44-2.72c-0.08-0.33,0.06-0.71,0.1-1.06
	c0.12-0.79,0.2-1.59,0.39-2.38c0.1-0.43,0.3-0.93,0.63-1.18c0.24-0.18,0.83-0.14,1.16,0.02c0.71,0.33,1.04,0.98,1.08,1.77
	c0.02,0.22,0.14,0.45,0.18,0.67c0.02,0.14,0.02,0.3-0.02,0.45c0,0.04-0.22,0.08-0.26,0.04c-0.08-0.1-0.12-0.24-0.18-0.37
	c-0.2-0.55-0.35-1.14-0.63-1.65c-0.33-0.63-0.71-0.57-1.14-0.02c-0.49,0.61-0.47,1.34-0.57,2.03c-0.08,0.45-0.1,0.91-0.12,1.38
	C28.13,6.44,28.57,7.01,28.98,7.62z"/>
<path class="st0" d="M34.73,7.62c0.77,1.14,1.71,2.15,2.3,3.43c0.79,1.67,1.04,3.39,0.93,5.22c-0.04,0.61,0.02,1.26-0.04,1.87
	c-0.1,0.87-0.24,1.77-0.79,2.48c-0.47,0.59-1.06,1.08-1.91,0.85c-0.24-0.06-0.47-0.28-0.69-0.45c-0.67-0.49-0.91-1.22-1.1-1.97
	c-0.1-0.41-0.14-0.81-0.22-1.22c-0.06-0.24,0-0.41,0.26-0.45c0.24-0.04,0.33,0.1,0.37,0.33c0.06,0.51,0.12,1.02,0.24,1.5
	c0.16,0.71,0.61,1.22,1.22,1.56c0.43,0.24,0.85,0.04,1.22-0.43c0.61-0.79,0.79-1.73,0.85-2.68c0.12-1.58,0.06-3.15-0.24-4.69
	c-0.12-0.67-0.49-1.3-0.75-1.95c-0.37-0.91-1.04-1.61-1.63-2.36c-0.63-0.83-1.2-1.71-1.44-2.72c-0.08-0.33,0.06-0.71,0.1-1.06
	c0.12-0.79,0.2-1.59,0.39-2.38c0.1-0.43,0.3-0.93,0.63-1.18c0.24-0.18,0.83-0.14,1.16,0.02c0.71,0.33,1.04,0.98,1.08,1.77
	c0.02,0.22,0.14,0.45,0.18,0.67c0.02,0.14,0.02,0.3-0.02,0.45c0,0.04-0.22,0.08-0.26,0.04c-0.08-0.1-0.12-0.24-0.18-0.37
	c-0.2-0.55-0.35-1.14-0.63-1.65c-0.33-0.63-0.71-0.57-1.14-0.02c-0.49,0.61-0.47,1.34-0.57,2.03c-0.08,0.45-0.1,0.91-0.12,1.38
	C33.88,6.44,34.32,7.01,34.73,7.62z"/>
<path class="st0" d="M2.26,36.98c0.77,1.14,1.71,2.15,2.3,3.43c0.79,1.67,1.04,3.39,0.93,5.22c-0.04,0.61,0.02,1.26-0.04,1.87
	c-0.1,0.87-0.24,1.77-0.79,2.48c-0.47,0.59-1.06,1.08-1.91,0.85c-0.24-0.06-0.47-0.28-0.69-0.45c-0.67-0.49-0.91-1.22-1.1-1.97
	c-0.1-0.41-0.14-0.81-0.22-1.22c-0.06-0.24,0-0.41,0.26-0.45c0.24-0.04,0.33,0.1,0.37,0.33c0.06,0.51,0.12,1.02,0.24,1.5
	c0.16,0.71,0.61,1.22,1.22,1.56c0.43,0.24,0.85,0.04,1.22-0.43c0.61-0.79,0.79-1.73,0.85-2.68c0.12-1.58,0.06-3.15-0.24-4.69
	c-0.12-0.67-0.49-1.3-0.75-1.95c-0.37-0.91-1.04-1.61-1.63-2.36c-0.63-0.83-1.2-1.71-1.44-2.72c-0.08-0.33,0.06-0.71,0.1-1.06
	c0.12-0.79,0.2-1.59,0.39-2.38c0.1-0.43,0.3-0.93,0.63-1.18c0.24-0.18,0.83-0.14,1.16,0.02c0.71,0.33,1.04,0.98,1.08,1.77
	c0.02,0.22,0.14,0.45,0.18,0.67c0.02,0.14,0.02,0.3-0.02,0.45c0,0.04-0.22,0.08-0.26,0.04c-0.08-0.1-0.12-0.24-0.18-0.37
	c-0.2-0.55-0.35-1.14-0.63-1.65C2.95,31,2.57,31.06,2.14,31.61c-0.49,0.61-0.47,1.34-0.57,2.03c-0.08,0.45-0.1,0.91-0.12,1.38
	C1.41,35.8,1.85,36.37,2.26,36.98z"/>
<path class="st0" d="M10.17,39.09c0.02-0.73-0.04-1.44-0.02-2.15c0.02-0.79,0.08-1.56,0.12-2.36c0.04-1.06,0.08-2.13,0.1-3.21
	c0-0.28,0.04-0.53,0.41-0.51c0.37,0.02,0.39,0.24,0.37,0.57c-0.08,1.08-0.12,2.15-0.18,3.23c-0.08,1.58-0.16,3.17-0.22,4.73
	c-0.08,1.87-0.14,3.74-0.24,5.61c-0.04,0.75-0.14,1.5-0.22,2.24c-0.08,0.63-0.14,1.24-0.28,1.85c-0.1,0.49-0.26,0.98-0.47,1.44
	C9.29,51,8.28,51.02,7.99,50.57c-0.55-0.81-0.63-1.77-0.75-2.68c-0.16-1.36-0.3-2.7-0.37-4.06c-0.04-1.22,0.08-2.46,0.12-3.7
	c0.02-1.1,0-2.19,0.02-3.29c0-0.35,0.06-0.69,0.06-1.04c0.02-1.26,0.04-2.52,0.06-3.8c0-0.3-0.06-0.63-0.04-0.93
	c0.02-0.16-0.02-0.49,0.28-0.49c0.3,0,0.3,0.3,0.3,0.45c0,1.79-0.04,3.58-0.06,5.34c0,1.02,0,2.01-0.02,3.01
	c-0.02,1.52-0.16,3.05-0.06,4.55c0.1,1.65,0.1,3.29,0.57,4.92c0.1,0.35,0.06,0.77,0.3,1.1c0.1,0.1,0.2,0.2,0.28,0.3
	c0.1-0.1,0.24-0.18,0.28-0.3c0.22-0.79,0.53-1.59,0.63-2.4c0.2-1.44,0.26-2.89,0.39-4.35c0.02-0.24,0-0.49,0-0.73H9.98
	C10.04,41.35,10.12,40.21,10.17,39.09z"/>
<path class="st0" d="M16.69,31.75c0.08-0.24,0.14-0.53,0.24-0.77c0.06-0.14,0.26-0.37,0.35-0.35c0.18,0.06,0.43,0.2,0.49,0.39
	c0.1,0.28,0.14,0.61,0.14,0.91c0.02,0.79-0.04,1.61-0.02,2.4c0.04,1.5,0.1,3.03,0.18,4.53c0.06,1.34,0.12,2.66,0.22,3.98
	c0.08,1.14,0.22,2.26,0.26,3.39c0.06,1.24,0.04,2.5,0.04,3.76c0,0.12-0.02,0.24,0.02,0.35c0.12,0.33-0.08,0.53-0.3,0.55
	c-0.26,0.02-0.45-0.18-0.43-0.51c0.04-0.53,0.12-1.08,0.1-1.63c-0.02-1.28-0.1-2.58-0.16-3.86c-0.02-0.41-0.06-0.79-0.08-1.2
	c-0.02-0.49-0.06-0.98-0.02-1.48c0.04-0.49-0.04-0.98-0.08-1.46c-0.04-0.57-0.12-1.12-0.16-1.67c-0.08-0.93-0.14-1.89-0.2-2.85
	c-0.04-0.93-0.06-1.89-0.08-2.85c0-0.2,0.02-0.43,0.04-0.65c-0.06,0-0.12-0.02-0.16-0.02c-0.24,0.75-0.51,1.5-0.71,2.28
	c-0.18,0.69-0.28,1.42-0.47,2.13c-0.06,0.28-0.22,0.55-0.57,0.57c-0.37,0.04-0.45-0.22-0.51-0.53c-0.12-0.65-0.26-1.32-0.43-1.97
	c-0.06-0.3-0.22-0.59-0.33-0.89c-0.16-0.55-0.3-1.14-0.47-1.69c-0.02-0.1-0.1-0.18-0.24-0.24c0,0.61,0,1.22,0,1.83
	c0.02,1.06,0.04,2.09,0.04,3.15c0.02,1.87-0.02,3.76,0,5.63c0,1.3,0.02,2.58,0.06,3.88c0.04,1.02,0.16,2.01,0.2,3.03
	c0,0.16-0.22,0.43-0.39,0.47c-0.26,0.08-0.39-0.12-0.39-0.39c0-1.46-0.04-2.91-0.06-4.37c-0.02-0.98-0.06-1.97-0.06-2.95
	c0-1.24,0.04-2.46,0.04-3.68c-0.02-1.63-0.08-3.27-0.1-4.9c-0.02-0.69,0.04-1.36,0.02-2.05c0-0.3-0.1-0.59-0.08-0.87
	c0.02-0.2,0.12-0.47,0.26-0.53c0.2-0.08,0.49-0.14,0.61,0.2c0.35,1.02,0.73,2.03,1.08,3.03c0.16,0.49,0.3,0.98,0.43,1.44
	c0.1,0.33,0.16,0.65,0.26,1.08C15.77,34.78,16.22,33.28,16.69,31.75z"/>
<path class="st0" d="M24.25,31.75c0.08-0.24,0.14-0.53,0.24-0.77c0.06-0.14,0.26-0.37,0.35-0.35c0.18,0.06,0.43,0.2,0.49,0.39
	c0.1,0.28,0.14,0.61,0.14,0.91c0.02,0.79-0.04,1.61-0.02,2.4c0.04,1.5,0.1,3.03,0.18,4.53c0.06,1.34,0.12,2.66,0.22,3.98
	c0.08,1.14,0.22,2.26,0.26,3.39c0.06,1.24,0.04,2.5,0.04,3.76c0,0.12-0.02,0.24,0.02,0.35c0.12,0.33-0.08,0.53-0.3,0.55
	c-0.26,0.02-0.45-0.18-0.43-0.51c0.04-0.53,0.12-1.08,0.1-1.63c-0.02-1.28-0.1-2.58-0.16-3.86c-0.02-0.41-0.06-0.79-0.08-1.2
	c-0.02-0.49-0.06-0.98-0.02-1.48c0.04-0.49-0.04-0.98-0.08-1.46c-0.04-0.57-0.12-1.12-0.16-1.67c-0.08-0.93-0.14-1.89-0.2-2.85
	c-0.04-0.93-0.06-1.89-0.08-2.85c0-0.2,0.02-0.43,0.04-0.65c-0.06,0-0.12-0.02-0.16-0.02c-0.24,0.75-0.51,1.5-0.71,2.28
	c-0.18,0.69-0.28,1.42-0.47,2.13c-0.06,0.28-0.22,0.55-0.57,0.57c-0.37,0.04-0.45-0.22-0.51-0.53c-0.12-0.65-0.26-1.32-0.43-1.97
	c-0.06-0.3-0.22-0.59-0.33-0.89c-0.16-0.55-0.3-1.14-0.47-1.69c-0.02-0.1-0.1-0.18-0.24-0.24c0,0.61,0,1.22,0,1.83
	c0.02,1.06,0.04,2.09,0.04,3.15c0.02,1.87-0.02,3.76,0,5.63c0,1.3,0.02,2.58,0.06,3.88c0.04,1.02,0.16,2.01,0.2,3.03
	c0,0.16-0.22,0.43-0.39,0.47c-0.26,0.08-0.39-0.12-0.39-0.39c0-1.46-0.04-2.91-0.06-4.37c-0.02-0.98-0.06-1.97-0.06-2.95
	c0-1.24,0.04-2.46,0.04-3.68c-0.02-1.63-0.08-3.27-0.1-4.9c-0.02-0.69,0.04-1.36,0.02-2.05c0-0.3-0.1-0.59-0.08-0.87
	c0.02-0.2,0.12-0.47,0.26-0.53c0.2-0.08,0.49-0.14,0.61,0.2c0.35,1.02,0.73,2.03,1.08,3.03c0.16,0.49,0.3,0.98,0.43,1.44
	c0.1,0.33,0.16,0.65,0.26,1.08C23.33,34.78,23.78,33.28,24.25,31.75z"/>
<path class="st0" d="M28.7,36.88c0.51-0.06,1.06-0.06,1.56-0.18c0.3-0.06,0.43,0.06,0.47,0.24c0.02,0.2-0.04,0.47-0.37,0.49
	c-0.47,0.02-0.91,0.04-1.36,0.06c-0.26,0-0.37,0.1-0.37,0.37c-0.02,1.3-0.06,2.58-0.08,3.88c-0.04,2.03-0.06,4.06-0.1,6.1
	c0,0.59,0,1.2,0,1.81c0,0.24,0.04,0.37,0.39,0.37c0.47-0.02,0.98,0.1,1.44,0.22c0.14,0.04,0.22,0.28,0.33,0.43
	c-0.14,0.08-0.26,0.24-0.41,0.24c-0.39,0-0.75-0.06-1.14-0.1c-0.12-0.02-0.22-0.04-0.35-0.06c-1-0.1-0.98-0.1-0.93-1.14
	c0.04-0.91,0.04-1.83,0.08-2.74c0.02-0.91,0.08-1.85,0.08-2.76c0.02-1.38-0.02-2.74,0.02-4.13c0.02-1.34,0.12-2.68,0.14-4.02
	c0.02-1.44-0.02-2.89-0.02-4.33c0-0.22-0.1-0.51,0-0.63c0.14-0.18,0.43-0.35,0.67-0.37c0.73-0.04,1.46-0.02,2.17-0.04
	c0.26,0,0.49,0.04,0.51,0.35c0,0.3-0.18,0.45-0.49,0.45c-0.73,0-1.44,0-2.26,0C28.7,33.2,28.7,34.99,28.7,36.88z"/>
<path class="st0" d="M37.41,50.43c-0.04-0.14-0.04-0.26-0.06-0.41c-0.24-0.96-0.49-1.91-0.73-2.89c-0.33-1.28-0.63-2.58-0.98-3.86
	c-0.35-1.32-0.75-2.64-1.14-3.96c-0.16-0.59-0.35-1.18-0.53-1.79c0.14-0.08,0.28-0.16,0.43-0.24c0.06-0.04,0.12-0.08,0.14-0.12
	c0.59-0.29,1.23-0.82,1.69-1.46l0,0c0.64-0.82,0.78-1.19,0.61-1.87c-0.01-0.1-0.03-0.2-0.05-0.3c-0.02-0.07-0.05-0.15-0.1-0.22
	c0,0,0,0,0,0c-0.47-1.32-1.68-2.16-3-2.65c-0.28-0.1-0.49-0.11-0.63-0.02c0,0,0,0,0,0c0,0,0,0,0,0c-0.06,0.04-0.11,0.1-0.14,0.18
	c-0.06,0.07-0.13,0.13-0.14,0.21c-0.02,1.22,0,2.44-0.06,3.68c-0.02,0.73-0.18,1.46-0.18,2.19c-0.02,1.2,0.06,2.4,0.06,3.6
	c0,1.24-0.06,2.46-0.06,3.7c0,0.98,0.04,1.93,0.06,2.91c0.04,1.08,0.08,2.17,0.06,3.27c0,0.35,0.14,0.49,0.47,0.49
	c0.35,0,0.3-0.24,0.28-0.51c-0.08-0.91-0.16-1.83-0.18-2.76c-0.02-0.63,0.06-1.28,0.06-1.91c0-0.41-0.08-0.81-0.08-1.22
	c-0.02-0.91-0.02-1.83-0.02-2.74c0-1.08,0.02-2.15,0.02-3.21c0-0.1,0.04-0.2,0.06-0.3c0.35,0.75,0.61,1.46,0.83,2.22
	c0.39,1.34,0.75,2.7,1.14,4.04c0.37,1.3,0.75,2.6,1.08,3.92c0.18,0.69,0.26,1.4,0.37,2.11c0.04,0.3,0.18,0.43,0.47,0.41
	C37.45,50.86,37.45,50.65,37.41,50.43z M33.21,37.08c0.08-1.81,0.14-3.62,0.22-5.43c0.1-0.08,0.2-0.13,0.31-0.18
	c1.11,0.38,2.01,1.08,2.38,2.25c0.06,0.31,0.09,0.63,0.07,0.92C36.1,35.54,34.04,36.94,33.21,37.08z"/>
<path class="st0" d="M21.08,24.86c-0.53-0.37-1.17-0.36-1.77-0.44c-0.39-0.06-0.8-0.08-1.2-0.09c-0.67-0.03-1.17,0.31-1.7,0.62
	c-0.99,0.59-1.88,1.31-2.99,1.76c-1.45,0.61-2.95,0.79-4.55,0.71c-0.53-0.03-1.1,0.02-1.63-0.03c-0.68-0.07-1.38-0.16-1.97-0.49
	c-0.12-0.06-0.15-0.2-0.1-0.31v0c0.07-0.14,0.26-0.19,0.4-0.12c0.63,0.34,1.34,0.45,2.07,0.49c1.38,0.09,2.74,0.05,4.09-0.19
	c0.58-0.09,1.13-0.37,1.7-0.57c0.8-0.28,1.4-0.79,2.05-1.24c0.73-0.48,1.49-0.92,2.37-1.1c0.28-0.06,0.62,0.05,0.92,0.08
	c0.69,0.09,1.38,0.16,2.07,0.3c0.37,0.08,0.59,0.15,1.03,0.48S21.62,25.23,21.08,24.86z"/>
<path class="st0" d="M11.59,27.81c0.22-0.12,1.29-0.26,1.86-0.46c0.8-0.28,1.4-0.79,2.05-1.24c0.73-0.48,1.49-0.92,2.37-1.1
	c0.28-0.06,0.8-0.05,1.1-0.02c0.69,0.09,1.6,0.34,1.6,0.42s-0.22,0.05-0.45,0.03c-0.25-0.02-0.79-0.15-0.83-0.15
	c-0.37-0.05-0.68-0.04-1.06-0.06c-0.67-0.03-1.36,0.45-1.89,0.76c-0.9,0.54-1.49,1.01-2.47,1.46c-0.19,0.09-0.98,0.27-1.19,0.28
	C12.67,27.71,11.37,27.93,11.59,27.81z"/>
<path class="st0" d="M18,26.84c0.53,0.37,1.17,0.36,1.77,0.44c0.39,0.06,0.8,0.08,1.2,0.09c0.67,0.03,1.17-0.31,1.7-0.62
	c0.99-0.59,1.88-1.31,2.99-1.76c1.45-0.61,2.95-0.79,4.55-0.71c0.53,0.03,1.1-0.02,1.63,0.03c0.68,0.07,1.38,0.16,1.97,0.49
	c0.12,0.06,0.15,0.2,0.1,0.31v0c-0.07,0.14-0.26,0.19-0.4,0.12c-0.63-0.34-1.34-0.45-2.07-0.49c-1.38-0.09-2.74-0.05-4.09,0.19
	c-0.58,0.09-1.13,0.37-1.7,0.57c-0.8,0.28-1.4,0.79-2.05,1.24c-0.73,0.48-1.49,0.92-2.37,1.1c-0.28,0.06-0.62-0.05-0.92-0.08
	c-0.69-0.09-1.38-0.16-2.07-0.3c-0.37-0.08-0.59-0.15-1.03-0.48S17.47,26.46,18,26.84z"/>
<path class="st0" d="M27.5,23.88c-0.22,0.12-1.29,0.26-1.86,0.46c-0.8,0.28-1.4,0.79-2.05,1.24c-0.73,0.48-1.49,0.92-2.37,1.1
	c-0.28,0.06-0.8,0.05-1.1,0.02c-0.69-0.09-1.6-0.34-1.6-0.42s0.22-0.05,0.45-0.03c0.25,0.02,0.79,0.15,0.83,0.15
	c0.37,0.05,0.68,0.04,1.06,0.06c0.67,0.03,1.36-0.45,1.89-0.76c0.9-0.54,1.49-1.01,2.47-1.46c0.19-0.09,0.98-0.27,1.19-0.28
	C26.41,23.98,27.71,23.76,27.5,23.88z"/>
</svg>
